<?xml version="1.0" encoding="UTF-8" standalone="no"?>
<!-- Created with Inkscape (http://www.inkscape.org/) -->

<svg
   xmlns:dc="http://purl.org/dc/elements/1.1/"
   xmlns:cc="http://creativecommons.org/ns#"
   xmlns:rdf="http://www.w3.org/1999/02/22-rdf-syntax-ns#"
   xmlns:svg="http://www.w3.org/2000/svg"
   xmlns="http://www.w3.org/2000/svg"
   xmlns:sodipodi="http://sodipodi.sourceforge.net/DTD/sodipodi-0.dtd"
   xmlns:inkscape="http://www.inkscape.org/namespaces/inkscape"
   width="500"
   height="500"
   viewBox="0 0 500.00001 500.00001"
   id="svg2"
   version="1.1"
   inkscape:version="0.91 r13725"
   sodipodi:docname="coffee-bin-ink.svg"
   inkscape:export-filename="/home/andre/Development/raspberry-coffee/assets/coffee-bin-logo-yellow-500.png"
   inkscape:export-xdpi="90"
   inkscape:export-ydpi="90">
  <defs
     id="defs4" />
  <sodipodi:namedview
     id="base"
     pagecolor="#ffffff"
     bordercolor="#666666"
     borderopacity="1.0"
     inkscape:pageopacity="0.0"
     inkscape:pageshadow="2"
     inkscape:zoom="1.5730978"
     inkscape:cx="320"
     inkscape:cy="240"
     inkscape:document-units="px"
     inkscape:current-layer="layer1"
     showgrid="false"
     inkscape:window-width="1920"
     inkscape:window-height="1016"
     inkscape:window-x="0"
     inkscape:window-y="27"
     inkscape:window-maximized="1"
     units="px"
     fit-margin-top="0"
     fit-margin-left="0"
     fit-margin-right="0"
     fit-margin-bottom="0" />
  <metadata
     id="metadata7">
    <rdf:RDF>
      <cc:Work
         rdf:about="">
        <dc:format>image/svg+xml</dc:format>
        <dc:type
           rdf:resource="http://purl.org/dc/dcmitype/StillImage" />
        <dc:title />
      </cc:Work>
    </rdf:RDF>
  </metadata>
  <g
     inkscape:label="Layer 1"
     inkscape:groupmode="layer"
     id="layer1"
     transform="translate(-147.92853,-372.40681)">
    <g
       id="g3718"
       transform="translate(0,-7.7349352)">
      <g
         transform="matrix(0.51221539,0,0,0.46657611,207.67712,340.28882)"
         id="g3759">
        <g
           id="g3420"
           transform="translate(131.92853,393.40682)">
          <path
             style="fill:#2b2200"
             inkscape:connector-curvature="0"
             d="m 455.5,0 -23.869,0 c -0.002,0 -0.004,0 -0.006,0 L 23.5,0 C 19.358,0 16,3.358 16,7.5 c 0,4.142 3.358,7.5 7.5,7.5 l 17.347,0 23.169,192.824 c 0.018,0.421 0.064,0.835 0.148,1.235 L 92.46,444.555 C 94.995,464.192 111.836,479 131.636,479 l 215.728,0 c 19.8,0 36.641,-14.808 39.183,-34.51 l 28.288,-235.43 c 0.085,-0.4 0.13,-0.814 0.148,-1.236 L 438.153,15 455.5,15 C 459.642,15 463,11.642 463,7.5 463,3.358 459.642,0 455.5,0 Z m -159.819,71 -1.375,33 -47.306,0 0,-33 48.681,0 z m 116.67,33 -40.7,0 2.75,-33 41.915,0 -3.965,33 z m -17.302,144 -35.398,0 2.75,-33 36.613,0 -3.965,33 z m -5.768,48 -33.63,0 2.75,-33 34.845,0 -3.965,33 z m -91.962,96 1.375,-33 36.655,0 -2.75,33 -35.28,0 z m -50.319,0 0,-33 36.681,0 -1.375,33 -35.306,0 z m -50.306,0 -1.375,-33 36.681,0 0,33 -35.306,0 z M 74.219,167 l 38.38,0 2.75,33 -37.165,0 -3.965,-33 z m 53.432,0 44.655,0 1.375,33 -43.28,0 -2.75,-33 z M 232,263 l 0,33 -39.306,0 -1.375,-33 40.681,0 z m -41.306,-15 -1.375,-33 42.681,0 0,33 -41.306,0 z m 56.306,15 40.681,0 -1.375,33 -39.306,0 0,-33 z m 0,-15 0,-33 42.681,0 -1.375,33 -41.306,0 z m 0,-48 0,-33 44.681,0 -1.375,33 -43.306,0 z m -15,0 -43.306,0 -1.375,-33 44.681,0 0,33 z m -57.694,15 1.375,33 -41.28,0 -2.75,-33 42.655,0 z m 2,48 1.375,33 -39.28,0 -2.75,-33 40.655,0 z m 2,48 1.375,33 -37.28,0 -2.75,-33 38.655,0 z m 15.013,0 38.681,0 0,33 -37.306,0 -1.375,-33 z m 53.681,0 38.681,0 -1.375,33 -37.306,0 0,-33 z m 53.694,0 38.655,0 -2.75,33 -37.28,0 1.375,-33 z m 0.625,-15 1.375,-33 40.655,0 -2.75,33 -39.28,0 z m 2,-48 1.375,-33 42.655,0 -2.75,33 -41.28,0 z m 2,-48 1.375,-33 44.655,0 -2.75,33 -43.28,0 z m 2,-48 1.375,-33 46.655,0 -2.75,33 -45.28,0 z m -15.013,0 -45.306,0 0,-33 46.681,0 -1.375,33 z m -60.306,0 -45.306,0 -1.375,-33 46.681,0 0,33 z m -60.319,0 -45.28,0 -2.75,-33 46.655,0 1.375,33 z m -60.332,0 -38.933,0 -3.965,-33 40.148,0 2.75,33 z m 5.25,63 2.75,33 -35.398,0 -3.965,-33 36.613,0 z m 4,48 2.75,33 -33.63,0 -3.965,-33 34.845,0 z m 4,48 2.75,33 -31.849,0 c -0.005,0 -0.009,10e-4 -0.014,10e-4 L 91.521,311 l 33.078,0 z m -27.31,48 31.31,0 2.75,33 -30.095,0 -3.965,-33 z m 49.112,33 -2.75,-33 36.655,0 1.375,33 -35.28,0 z m 204,-33 31.31,0 -3.965,33 -30.095,0 2.75,-33 z m 33.113,-14.999 c -0.005,0 -0.009,-10e-4 -0.014,-10e-4 l -31.849,0 2.75,-33 33.078,0 -3.965,33.001 z M 363.651,200 l 2.75,-33 38.38,0 -3.965,33 -37.165,0 z m 42.933,-48 -38.933,0 2.75,-33 40.148,0 -3.965,33 z m -49.985,-48 -47.28,0 1.375,-33 48.655,0 -2.75,33 z M 232,104 l -47.306,0 -1.375,-33 48.681,0 0,33 z m -63.694,-33 1.375,33 -47.28,0 -2.75,-33 48.655,0 z m -63.707,0 2.75,33 -40.7,0 -3.965,-33 41.915,0 z M 371.662,442.635 C 370.091,454.815 359.645,464 347.364,464 l -215.728,0 c -12.281,0 -22.727,-9.185 -24.291,-21.299 L 103.056,407 l 36.425,0 c 0.003,0 0.007,0 0.01,0 0.004,0 0.008,0 0.012,0 l 199.993,0 c 0.004,0 0.008,0 0.012,0 0.003,0 0.007,0 0.01,0 l 36.425,0 -4.281,35.635 z M 418.119,56 60.881,56 55.955,15 l 367.09,0 -4.926,41 z"
             id="path3422" />
        </g>
        <g
           id="g3428"
           transform="translate(131.92853,467.14796)" />
        <g
           id="g3430"
           transform="translate(131.92853,467.14796)" />
        <g
           id="g3432"
           transform="translate(131.92853,467.14796)" />
        <g
           id="g3434"
           transform="translate(131.92853,467.14796)" />
        <g
           id="g3436"
           transform="translate(131.92853,467.14796)" />
        <g
           id="g3438"
           transform="translate(131.92853,467.14796)" />
        <g
           id="g3440"
           transform="translate(131.92853,467.14796)" />
        <g
           id="g3442"
           transform="translate(131.92853,467.14796)" />
        <g
           id="g3444"
           transform="translate(131.92853,467.14796)" />
        <g
           id="g3446"
           transform="translate(131.92853,467.14796)" />
        <g
           id="g3448"
           transform="translate(131.92853,467.14796)" />
        <g
           id="g3450"
           transform="translate(131.92853,467.14796)" />
        <g
           id="g3452"
           transform="translate(131.92853,467.14796)" />
        <g
           id="g3454"
           transform="translate(131.92853,467.14796)" />
        <g
           id="g3456"
           transform="translate(131.92853,467.14796)" />
        <g
           id="g3645"
           transform="translate(164,-160.78103)">
          <g
             id="g3597"
             transform="matrix(1.0847643,0,0,1.4344163,-60.235306,267.77806)">
            <path
               style="fill:#2b2200"
               id="path3601"
               d="m 235.138,72.269 c -13.241,13.241 -20.303,26.483 -20.303,40.607 0,14.124 7.062,28.248 20.303,42.372 1.766,1.766 3.531,2.648 6.179,2.648 2.648,0 4.414,-0.883 6.179,-2.648 3.531,-3.531 3.531,-8.828 0,-12.359 -9.71,-10.593 -15.007,-20.303 -15.007,-30.014 0,-9.711 5.297,-19.421 15.007,-28.248 13.242,-12.358 20.304,-26.482 20.304,-40.606 0,-14.124 -6.179,-29.131 -20.303,-42.372 -3.531,-3.531 -8.828,-3.531 -12.359,0 -3.531,3.531 -3.531,8.828 0,12.359 9.71,10.593 15.007,20.303 15.007,30.014 0,9.711 -5.297,19.419 -15.007,28.247 z"
               inkscape:connector-curvature="0" />
            <path
               style="fill:#2b2200"
               id="path3603"
               d="m 311.938,112.876 c 0,14.124 7.062,28.248 20.303,42.372 1.766,1.766 3.531,2.648 6.179,2.648 1.766,0 4.414,-0.883 5.297,-2.648 3.531,-3.531 3.531,-8.828 0,-12.359 -9.71,-10.593 -15.007,-20.303 -15.007,-30.014 0,-9.711 5.297,-19.421 15.007,-28.248 14.124,-12.359 21.186,-26.483 21.186,-40.607 0,-15.007 -6.179,-29.131 -20.303,-42.372 -3.531,-3.531 -8.828,-3.531 -12.359,0 -3.531,3.531 -3.531,8.828 0,12.359 9.71,10.593 15.007,20.303 15.007,30.014 0,9.711 -5.297,18.538 -15.007,28.248 C 319,85.51 311.938,98.752 311.938,112.876 Z"
               inkscape:connector-curvature="0" />
            <path
               style="fill:#2b2200"
               id="path3605"
               d="m 126.559,112.876 c 0,14.124 7.062,28.248 20.303,42.372 1.766,1.766 3.531,2.648 6.179,2.648 1.766,0 4.414,-0.883 5.297,-2.648 3.531,-3.531 3.531,-8.828 0,-12.359 -9.71,-10.593 -15.007,-20.303 -15.007,-30.014 0,-9.711 5.297,-19.421 15.007,-28.248 14.124,-12.359 21.186,-26.483 21.186,-40.607 0,-15.007 -6.179,-29.131 -20.303,-42.372 -3.531,-3.531 -8.828,-3.531 -12.359,0 -3.531,3.531 -3.531,8.828 0,12.359 9.71,10.593 15.007,20.303 15.007,30.014 0,9.711 -5.297,18.538 -15.007,28.248 -13.241,13.241 -20.303,26.483 -20.303,40.607 z"
               inkscape:connector-curvature="0" />
          </g>
          <g
             id="g3609" />
          <g
             id="g3611" />
          <g
             id="g3613" />
          <g
             id="g3615" />
          <g
             id="g3617" />
          <g
             id="g3619" />
          <g
             id="g3621" />
          <g
             id="g3623" />
          <g
             id="g3625" />
          <g
             id="g3627" />
          <g
             id="g3629" />
          <g
             id="g3631" />
          <g
             id="g3633" />
          <g
             id="g3635" />
          <g
             id="g3637" />
        </g>
      </g>
      <g
         inkscape:export-ydpi="80.483055"
         inkscape:export-xdpi="80.483055"
         id="text3336"
         style="font-style:normal;font-variant:normal;font-weight:normal;font-stretch:normal;font-size:68.24923706px;line-height:125%;font-family:Purisa;-inkscape-font-specification:Purisa;letter-spacing:0px;word-spacing:0px;fill:#000000;fill-opacity:1;stroke:none;stroke-width:1px;stroke-linecap:butt;stroke-linejoin:miter;stroke-opacity:1"
         transform="matrix(0.83807092,0,0,0.83807092,91.020142,614.52697)">
        <path
           id="path3344"
           style="font-style:normal;font-variant:normal;font-weight:200;font-stretch:normal;font-size:136.49847412px;font-family:Roboto;-inkscape-font-specification:'Roboto Ultra-Light'"
           d="m 116.10534,301.62072 q 9.7975,0 16.12922,-5.19867 6.39836,-5.19867 6.99821,-14.39632 l 3.59908,0 q -0.5332,10.46399 -8.06461,16.86236 -7.53141,6.33171 -18.6619,6.33171 -13.52988,0 -21.527834,-9.79749 -7.931308,-9.7975 -7.931308,-26.59321 l 0,-2.39939 q 0,-16.39581 7.931308,-26.19331 7.997954,-9.7975 21.394534,-9.7975 11.46374,0 18.9285,6.86491 7.46476,6.86492 7.93131,18.26201 l -3.59908,0 q -0.46655,-9.73085 -6.86491,-15.59602 -6.33172,-5.93182 -16.39582,-5.93182 -12.06358,0 -18.928497,8.73111 -6.798264,8.66445 -6.798264,24.12717 l 0,2.33273 q 0,15.12947 6.864914,23.79393 6.931567,8.5978 18.995147,8.5978 z"
           inkscape:connector-curvature="0" />
        <path
           id="path3346"
           style="font-style:normal;font-variant:normal;font-weight:200;font-stretch:normal;font-size:136.49847412px;font-family:Roboto;-inkscape-font-specification:'Roboto Ultra-Light'"
           d="m 155.49528,266.42971 q 0,-10.3307 3.93233,-18.5286 3.99898,-8.26456 11.19714,-12.86338 7.26481,-4.59883 16.39581,-4.59883 9.06435,0 16.26251,4.46553 7.19817,4.46552 11.19715,12.66343 4.06562,8.19791 4.13227,18.46195 l 0,3.19918 q 0,10.39735 -3.93233,18.59526 -3.93232,8.1979 -11.19714,12.79673 -7.19816,4.59882 -16.32916,4.59882 -9.131,0 -16.39581,-4.53217 -7.19816,-4.53218 -11.19714,-12.66344 -3.99898,-8.1979 -4.06563,-18.3953 l 0,-3.19918 z m 3.59908,2.79928 q 0,8.99771 3.53243,16.52912 3.59908,7.46476 9.9308,11.66368 6.39836,4.19893 14.59627,4.19893 12.33019,0 20.06154,-9.2643 7.79801,-9.2643 7.79801,-23.86057 l 0,-2.06614 q 0,-8.8644 -3.59908,-16.39581 -3.59908,-7.53141 -9.99745,-11.73034 -6.33171,-4.26558 -14.39632,-4.26558 -12.33018,0 -20.12819,9.3976 -7.79801,9.3976 -7.79801,23.66063 l 0,2.13278 z"
           inkscape:connector-curvature="0" />
        <path
           id="path3348"
           style="font-style:normal;font-variant:normal;font-weight:200;font-stretch:normal;font-size:136.49847412px;font-family:Roboto;-inkscape-font-specification:'Roboto Ultra-Light'"
           d="m 241.60662,303.88681 0,-68.44919 -12.53013,0 0,-3.66573 12.53013,0 0,-10.53064 q 0.0667,-9.99745 4.99873,-15.52937 4.99872,-5.59857 13.86312,-5.59857 4.93208,0 8.53116,1.13305 l -0.5332,3.46578 q -3.46578,-0.99975 -7.93131,-0.99975 -7.13151,0 -11.26379,4.66548 -4.06563,4.59882 -4.06563,13.12998 l 0,10.26404 19.0618,0 0,3.66573 -19.0618,0 0,68.44919 -3.59908,0 z"
           inkscape:connector-curvature="0" />
        <path
           id="path3350"
           style="font-style:normal;font-variant:normal;font-weight:200;font-stretch:normal;font-size:136.49847412px;font-family:Roboto;-inkscape-font-specification:'Roboto Ultra-Light'"
           d="m 284.52899,303.88681 0,-68.44919 -12.53014,0 0,-3.66573 12.53014,0 0,-10.53064 q 0.0666,-9.99745 4.99872,-15.52937 4.99872,-5.59857 13.86313,-5.59857 4.93207,0 8.53115,1.13305 l -0.5332,3.46578 q -3.46578,-0.99975 -7.93131,-0.99975 -7.13151,0 -11.26379,4.66548 -4.06562,4.59882 -4.06562,13.12998 l 0,10.26404 19.0618,0 0,3.66573 -19.0618,0 0,68.44919 -3.59908,0 z"
           inkscape:connector-curvature="0" />
        <path
           id="path3352"
           style="font-style:normal;font-variant:normal;font-weight:200;font-stretch:normal;font-size:136.49847412px;font-family:Roboto;-inkscape-font-specification:'Roboto Ultra-Light'"
           d="m 346.31321,305.2198 q -8.7311,0 -16.06256,-4.66547 -7.26481,-4.73213 -11.39709,-12.93003 -4.13228,-8.19791 -4.13228,-18.19536 l 0,-2.99923 q 0,-9.99745 3.99898,-18.32865 3.99898,-8.33121 10.99719,-12.99668 6.99821,-4.66548 15.26277,-4.66548 12.06358,0 19.72829,8.59781 7.66471,8.5978 7.66471,22.59423 l 0,3.79902 -54.05286,0 0,3.93233 q 0,8.79776 3.66573,16.32917 3.73238,7.46476 10.1974,11.73033 6.53166,4.26558 14.12972,4.26558 7.26481,0 12.33019,-2.39939 5.13202,-2.46603 9.06435,-7.53141 l 2.53268,1.79955 q -8.0646,11.66368 -23.92722,11.66368 z m -1.33299,-71.18182 q -10.53065,0 -17.86211,7.86466 -7.33146,7.79801 -8.5978,19.92824 l 50.25383,0 0,-0.86644 q 0,-7.33146 -3.13253,-13.59653 -3.06589,-6.33172 -8.53116,-9.7975 -5.39862,-3.53243 -12.13023,-3.53243 z"
           inkscape:connector-curvature="0" />
        <path
           id="path3354"
           style="font-style:normal;font-variant:normal;font-weight:200;font-stretch:normal;font-size:136.49847412px;font-family:Roboto;-inkscape-font-specification:'Roboto Ultra-Light'"
           d="m 415.09565,305.2198 q -8.7311,0 -16.06256,-4.66547 -7.26481,-4.73213 -11.39709,-12.93003 -4.13228,-8.19791 -4.13228,-18.19536 l 0,-2.99923 q 0,-9.99745 3.99898,-18.32865 3.99898,-8.33121 10.99719,-12.99668 6.99821,-4.66548 15.26277,-4.66548 12.06358,0 19.72829,8.59781 7.66471,8.5978 7.66471,22.59423 l 0,3.79902 -54.05286,0 0,3.93233 q 0,8.79776 3.66573,16.32917 3.73238,7.46476 10.1974,11.73033 6.53166,4.26558 14.12972,4.26558 7.26481,0 12.33019,-2.39939 5.13202,-2.46603 9.06435,-7.53141 l 2.53268,1.79955 q -8.0646,11.66368 -23.92722,11.66368 z m -1.33299,-71.18182 q -10.53065,0 -17.86211,7.86466 -7.33146,7.79801 -8.5978,19.92824 l 50.25383,0 0,-0.86644 q 0,-7.33146 -3.13253,-13.59653 -3.06589,-6.33172 -8.53116,-9.7975 -5.39862,-3.53243 -12.13023,-3.53243 z"
           inkscape:connector-curvature="0" />
        <path
           inkscape:connector-curvature="0"
           id="path3356"
           style="font-style:normal;font-variant:normal;font-weight:200;font-stretch:normal;font-size:136.49847412px;font-family:Roboto;-inkscape-font-specification:'Roboto Ultra-Light';stroke:#fff6d5"
           d="m 545.86226,268.49585 q 0,16.86236 -7.26481,26.79316 -7.26481,9.93079 -19.79494,9.93079 -8.13126,0 -14.52963,-3.33248 -6.39836,-3.39913 -10.06409,-9.3976 l 0,11.39709 -3.59908,0 0,-102.37386 3.59908,0 0,43.38892 q 3.79903,-7.13151 9.99744,-10.79724 6.26507,-3.66573 14.46298,-3.66573 12.66343,0 19.92824,9.73085 7.26481,9.6642 7.26481,27.19305 l 0,1.13305 z m -3.73238,-1.39964 q 0,-15.52937 -6.19841,-24.26048 -6.13177,-8.79775 -17.19561,-8.79775 -9.06436,0 -15.39607,4.66548 -6.26507,4.66547 -9.131,13.86312 l 0,33.05823 q 2.86593,7.66471 9.131,11.86363 6.33171,4.13228 15.52937,4.13228 11.13049,0 17.1956,-8.8644 6.06512,-8.8644 6.06512,-25.66011 z" />
        <path
           id="path3358"
           style="font-style:normal;font-variant:normal;font-weight:200;font-stretch:normal;font-size:136.49847412px;font-family:Roboto;-inkscape-font-specification:'Roboto Ultra-Light'"
           d="m 569.85611,303.88681 -3.59908,0 0,-72.11492 3.59908,0 0,72.11492 z m -5.46527,-94.6425 q 0,-1.53294 1.0664,-2.59933 1.06639,-1.13305 2.59933,-1.13305 1.53295,0 2.59934,1.13305 1.13304,1.06639 1.13304,2.59933 0,1.53295 -1.13304,2.59934 -1.06639,1.06639 -2.59934,1.06639 -1.53294,0 -2.59933,-1.06639 -1.0664,-1.06639 -1.0664,-2.59934 z"
           inkscape:connector-curvature="0" />
        <path
           id="path3360"
           style="font-style:normal;font-variant:normal;font-weight:200;font-stretch:normal;font-size:136.49847412px;font-family:Roboto;-inkscape-font-specification:'Roboto Ultra-Light'"
           d="m 597.24913,248.5676 q 3.53243,-8.39785 10.39734,-13.26327 6.86492,-4.86543 15.19612,-4.86543 11.59704,0 17.19561,6.59832 5.66522,6.53166 5.73187,19.79494 l 0,47.05465 -3.59908,0 0,-47.18795 q -0.0666,-11.59704 -4.73212,-17.12896 -4.66548,-5.59857 -14.79623,-5.59857 -9.33095,0 -16.19586,6.66497 -6.79826,6.59831 -9.19765,17.06231 l 0,46.1882 -3.59908,0 0,-72.11492 3.59908,0 0,16.79571 z"
           inkscape:connector-curvature="0" />
      </g>
    </g>
  </g>
</svg>
