<?xml version="1.0" encoding="UTF-8" standalone="no"?>
<!-- Created with Inkscape (http://www.inkscape.org/) -->

<svg
   xmlns:dc="http://purl.org/dc/elements/1.1/"
   xmlns:cc="http://creativecommons.org/ns#"
   xmlns:rdf="http://www.w3.org/1999/02/22-rdf-syntax-ns#"
   xmlns:svg="http://www.w3.org/2000/svg"
   xmlns="http://www.w3.org/2000/svg"
   xmlns:sodipodi="http://sodipodi.sourceforge.net/DTD/sodipodi-0.dtd"
   xmlns:inkscape="http://www.inkscape.org/namespaces/inkscape"
   width="500"
   height="500"
   viewBox="0 0 500.00001 500.00001"
   id="svg2"
   version="1.1"
   inkscape:version="0.91 r13725"
   sodipodi:docname="coffee-bin-logo.svg"
   inkscape:export-filename="/home/andre/Development/raspberry-coffee/assets/coffee-bin-logo-yellow-500.png"
   inkscape:export-xdpi="90"
   inkscape:export-ydpi="90">
  <defs
     id="defs4" />
  <sodipodi:namedview
     id="base"
     pagecolor="#ffffff"
     bordercolor="#666666"
     borderopacity="1.0"
     inkscape:pageopacity="0.0"
     inkscape:pageshadow="2"
     inkscape:zoom="0.98994949"
     inkscape:cx="21.228874"
     inkscape:cy="271.12486"
     inkscape:document-units="px"
     inkscape:current-layer="layer1"
     showgrid="false"
     inkscape:window-width="1920"
     inkscape:window-height="1016"
     inkscape:window-x="0"
     inkscape:window-y="27"
     inkscape:window-maximized="1"
     units="px"
     fit-margin-top="0"
     fit-margin-left="0"
     fit-margin-right="0"
     fit-margin-bottom="0" />
  <metadata
     id="metadata7">
    <rdf:RDF>
      <cc:Work
         rdf:about="">
        <dc:format>image/svg+xml</dc:format>
        <dc:type
           rdf:resource="http://purl.org/dc/dcmitype/StillImage" />
        <dc:title></dc:title>
      </cc:Work>
    </rdf:RDF>
  </metadata>
  <g
     inkscape:label="Layer 1"
     inkscape:groupmode="layer"
     id="layer1"
     transform="translate(-147.92853,-372.40681)">
    <g
       id="g3759"
       transform="matrix(0.78040463,0,0,0.59559362,108.06399,331.17074)">
      <g
         transform="translate(131.92853,393.40682)"
         id="g3420">
        <path
           id="path3422"
           d="m 455.5,0 -23.869,0 c -0.002,0 -0.004,0 -0.006,0 L 23.5,0 C 19.358,0 16,3.358 16,7.5 c 0,4.142 3.358,7.5 7.5,7.5 l 17.347,0 23.169,192.824 c 0.018,0.421 0.064,0.835 0.148,1.235 L 92.46,444.555 C 94.995,464.192 111.836,479 131.636,479 l 215.728,0 c 19.8,0 36.641,-14.808 39.183,-34.51 l 28.288,-235.43 c 0.085,-0.4 0.13,-0.814 0.148,-1.236 L 438.153,15 455.5,15 C 459.642,15 463,11.642 463,7.5 463,3.358 459.642,0 455.5,0 Z m -159.819,71 -1.375,33 -47.306,0 0,-33 48.681,0 z m 116.67,33 -40.7,0 2.75,-33 41.915,0 -3.965,33 z m -17.302,144 -35.398,0 2.75,-33 36.613,0 -3.965,33 z m -5.768,48 -33.63,0 2.75,-33 34.845,0 -3.965,33 z m -91.962,96 1.375,-33 36.655,0 -2.75,33 -35.28,0 z m -50.319,0 0,-33 36.681,0 -1.375,33 -35.306,0 z m -50.306,0 -1.375,-33 36.681,0 0,33 -35.306,0 z M 74.219,167 l 38.38,0 2.75,33 -37.165,0 -3.965,-33 z m 53.432,0 44.655,0 1.375,33 -43.28,0 -2.75,-33 z M 232,263 l 0,33 -39.306,0 -1.375,-33 40.681,0 z m -41.306,-15 -1.375,-33 42.681,0 0,33 -41.306,0 z m 56.306,15 40.681,0 -1.375,33 -39.306,0 0,-33 z m 0,-15 0,-33 42.681,0 -1.375,33 -41.306,0 z m 0,-48 0,-33 44.681,0 -1.375,33 -43.306,0 z m -15,0 -43.306,0 -1.375,-33 44.681,0 0,33 z m -57.694,15 1.375,33 -41.28,0 -2.75,-33 42.655,0 z m 2,48 1.375,33 -39.28,0 -2.75,-33 40.655,0 z m 2,48 1.375,33 -37.28,0 -2.75,-33 38.655,0 z m 15.013,0 38.681,0 0,33 -37.306,0 -1.375,-33 z m 53.681,0 38.681,0 -1.375,33 -37.306,0 0,-33 z m 53.694,0 38.655,0 -2.75,33 -37.28,0 1.375,-33 z m 0.625,-15 1.375,-33 40.655,0 -2.75,33 -39.28,0 z m 2,-48 1.375,-33 42.655,0 -2.75,33 -41.28,0 z m 2,-48 1.375,-33 44.655,0 -2.75,33 -43.28,0 z m 2,-48 1.375,-33 46.655,0 -2.75,33 -45.28,0 z m -15.013,0 -45.306,0 0,-33 46.681,0 -1.375,33 z m -60.306,0 -45.306,0 -1.375,-33 46.681,0 0,33 z m -60.319,0 -45.28,0 -2.75,-33 46.655,0 1.375,33 z m -60.332,0 -38.933,0 -3.965,-33 40.148,0 2.75,33 z m 5.25,63 2.75,33 -35.398,0 -3.965,-33 36.613,0 z m 4,48 2.75,33 -33.63,0 -3.965,-33 34.845,0 z m 4,48 2.75,33 -31.849,0 c -0.005,0 -0.009,10e-4 -0.014,10e-4 L 91.521,311 l 33.078,0 z m -27.31,48 31.31,0 2.75,33 -30.095,0 -3.965,-33 z m 49.112,33 -2.75,-33 36.655,0 1.375,33 -35.28,0 z m 204,-33 31.31,0 -3.965,33 -30.095,0 2.75,-33 z m 33.113,-14.999 c -0.005,0 -0.009,-10e-4 -0.014,-10e-4 l -31.849,0 2.75,-33 33.078,0 -3.965,33.001 z M 363.651,200 l 2.75,-33 38.38,0 -3.965,33 -37.165,0 z m 42.933,-48 -38.933,0 2.75,-33 40.148,0 -3.965,33 z m -49.985,-48 -47.28,0 1.375,-33 48.655,0 -2.75,33 z M 232,104 l -47.306,0 -1.375,-33 48.681,0 0,33 z m -63.694,-33 1.375,33 -47.28,0 -2.75,-33 48.655,0 z m -63.707,0 2.75,33 -40.7,0 -3.965,-33 41.915,0 z M 371.662,442.635 C 370.091,454.815 359.645,464 347.364,464 l -215.728,0 c -12.281,0 -22.727,-9.185 -24.291,-21.299 L 103.056,407 l 36.425,0 c 0.003,0 0.007,0 0.01,0 0.004,0 0.008,0 0.012,0 l 199.993,0 c 0.004,0 0.008,0 0.012,0 0.003,0 0.007,0 0.01,0 l 36.425,0 -4.281,35.635 z M 418.119,56 60.881,56 55.955,15 l 367.09,0 -4.926,41 z"
           inkscape:connector-curvature="0"
           style="fill:#2b2200" />
      </g>
      <g
         transform="translate(131.92853,467.14796)"
         id="g3428" />
      <g
         transform="translate(131.92853,467.14796)"
         id="g3430" />
      <g
         transform="translate(131.92853,467.14796)"
         id="g3432" />
      <g
         transform="translate(131.92853,467.14796)"
         id="g3434" />
      <g
         transform="translate(131.92853,467.14796)"
         id="g3436" />
      <g
         transform="translate(131.92853,467.14796)"
         id="g3438" />
      <g
         transform="translate(131.92853,467.14796)"
         id="g3440" />
      <g
         transform="translate(131.92853,467.14796)"
         id="g3442" />
      <g
         transform="translate(131.92853,467.14796)"
         id="g3444" />
      <g
         transform="translate(131.92853,467.14796)"
         id="g3446" />
      <g
         transform="translate(131.92853,467.14796)"
         id="g3448" />
      <g
         transform="translate(131.92853,467.14796)"
         id="g3450" />
      <g
         transform="translate(131.92853,467.14796)"
         id="g3452" />
      <g
         transform="translate(131.92853,467.14796)"
         id="g3454" />
      <g
         transform="translate(131.92853,467.14796)"
         id="g3456" />
      <g
         transform="translate(164,-160.78103)"
         id="g3645">
        <g
           transform="matrix(1.0847643,0,0,1.4344163,-60.235306,267.77806)"
           id="g3597">
          <path
             inkscape:connector-curvature="0"
             d="m 235.138,72.269 c -13.241,13.241 -20.303,26.483 -20.303,40.607 0,14.124 7.062,28.248 20.303,42.372 1.766,1.766 3.531,2.648 6.179,2.648 2.648,0 4.414,-0.883 6.179,-2.648 3.531,-3.531 3.531,-8.828 0,-12.359 -9.71,-10.593 -15.007,-20.303 -15.007,-30.014 0,-9.711 5.297,-19.421 15.007,-28.248 13.242,-12.358 20.304,-26.482 20.304,-40.606 0,-14.124 -6.179,-29.131 -20.303,-42.372 -3.531,-3.531 -8.828,-3.531 -12.359,0 -3.531,3.531 -3.531,8.828 0,12.359 9.71,10.593 15.007,20.303 15.007,30.014 0,9.711 -5.297,19.419 -15.007,28.247 z"
             id="path3601"
             style="fill:#2b2200" />
          <path
             inkscape:connector-curvature="0"
             d="m 311.938,112.876 c 0,14.124 7.062,28.248 20.303,42.372 1.766,1.766 3.531,2.648 6.179,2.648 1.766,0 4.414,-0.883 5.297,-2.648 3.531,-3.531 3.531,-8.828 0,-12.359 -9.71,-10.593 -15.007,-20.303 -15.007,-30.014 0,-9.711 5.297,-19.421 15.007,-28.248 14.124,-12.359 21.186,-26.483 21.186,-40.607 0,-15.007 -6.179,-29.131 -20.303,-42.372 -3.531,-3.531 -8.828,-3.531 -12.359,0 -3.531,3.531 -3.531,8.828 0,12.359 9.71,10.593 15.007,20.303 15.007,30.014 0,9.711 -5.297,18.538 -15.007,28.248 C 319,85.51 311.938,98.752 311.938,112.876 Z"
             id="path3603"
             style="fill:#2b2200" />
          <path
             inkscape:connector-curvature="0"
             d="m 126.559,112.876 c 0,14.124 7.062,28.248 20.303,42.372 1.766,1.766 3.531,2.648 6.179,2.648 1.766,0 4.414,-0.883 5.297,-2.648 3.531,-3.531 3.531,-8.828 0,-12.359 -9.71,-10.593 -15.007,-20.303 -15.007,-30.014 0,-9.711 5.297,-19.421 15.007,-28.248 14.124,-12.359 21.186,-26.483 21.186,-40.607 0,-15.007 -6.179,-29.131 -20.303,-42.372 -3.531,-3.531 -8.828,-3.531 -12.359,0 -3.531,3.531 -3.531,8.828 0,12.359 9.71,10.593 15.007,20.303 15.007,30.014 0,9.711 -5.297,18.538 -15.007,28.248 -13.241,13.241 -20.303,26.483 -20.303,40.607 z"
             id="path3605"
             style="fill:#2b2200" />
        </g>
        <g
           id="g3609" />
        <g
           id="g3611" />
        <g
           id="g3613" />
        <g
           id="g3615" />
        <g
           id="g3617" />
        <g
           id="g3619" />
        <g
           id="g3621" />
        <g
           id="g3623" />
        <g
           id="g3625" />
        <g
           id="g3627" />
        <g
           id="g3629" />
        <g
           id="g3631" />
        <g
           id="g3633" />
        <g
           id="g3635" />
        <g
           id="g3637" />
      </g>
    </g>
  </g>
</svg>
