<?xml version="1.0" encoding="UTF-8" standalone="no"?>
<!-- Created with Inkscape (http://www.inkscape.org/) -->

<svg
   xmlns:dc="http://purl.org/dc/elements/1.1/"
   xmlns:cc="http://creativecommons.org/ns#"
   xmlns:rdf="http://www.w3.org/1999/02/22-rdf-syntax-ns#"
   xmlns:svg="http://www.w3.org/2000/svg"
   xmlns="http://www.w3.org/2000/svg"
   xmlns:sodipodi="http://sodipodi.sourceforge.net/DTD/sodipodi-0.dtd"
   xmlns:inkscape="http://www.inkscape.org/namespaces/inkscape"
   width="157.79718mm"
   height="29.663387mm"
   viewBox="0 0 559.12387 105.10649"
   id="svg2"
   version="1.1"
   inkscape:version="0.91 r13725"
   sodipodi:docname="coff-bin-text.svg"
   inkscape:export-filename="/home/andre/Development/raspberry-coffee/assets/logo/coffe-bin-text-white.png"
   inkscape:export-xdpi="80.483063"
   inkscape:export-ydpi="80.483063">
  <defs
     id="defs4" />
  <sodipodi:namedview
     id="base"
     pagecolor="#ffffff"
     bordercolor="#666666"
     borderopacity="1.0"
     inkscape:pageopacity="0.0"
     inkscape:pageshadow="2"
     inkscape:zoom="3.0471875"
     inkscape:cx="277.14286"
     inkscape:cy="-11.428571"
     inkscape:document-units="px"
     inkscape:current-layer="layer1"
     showgrid="false"
     inkscape:window-width="1920"
     inkscape:window-height="1016"
     inkscape:window-x="0"
     inkscape:window-y="27"
     inkscape:window-maximized="1"
     fit-margin-top="0"
     fit-margin-left="0"
     fit-margin-right="0"
     fit-margin-bottom="0" />
  <metadata
     id="metadata7">
    <rdf:RDF>
      <cc:Work
         rdf:about="">
        <dc:format>image/svg+xml</dc:format>
        <dc:type
           rdf:resource="http://purl.org/dc/dcmitype/StillImage" />
        <dc:title></dc:title>
      </cc:Work>
    </rdf:RDF>
  </metadata>
  <g
     inkscape:label="Layer 1"
     inkscape:groupmode="layer"
     id="layer1"
     transform="translate(-86.646198,-200.11331)">
    <g
       style="font-style:normal;font-variant:normal;font-weight:normal;font-stretch:normal;font-size:68.24923706px;line-height:125%;font-family:Purisa;-inkscape-font-specification:Purisa;letter-spacing:0px;word-spacing:0px;fill:#000000;fill-opacity:1;stroke:none;stroke-width:1px;stroke-linecap:butt;stroke-linejoin:miter;stroke-opacity:1"
       id="text3336"
       inkscape:export-xdpi="80.483055"
       inkscape:export-ydpi="80.483055">
      <path
         d="m 116.10534,301.62072 q 9.7975,0 16.12922,-5.19867 6.39836,-5.19867 6.99821,-14.39632 l 3.59908,0 q -0.5332,10.46399 -8.06461,16.86236 -7.53141,6.33171 -18.6619,6.33171 -13.52988,0 -21.527834,-9.79749 -7.931308,-9.7975 -7.931308,-26.59321 l 0,-2.39939 q 0,-16.39581 7.931308,-26.19331 7.997954,-9.7975 21.394534,-9.7975 11.46374,0 18.9285,6.86491 7.46476,6.86492 7.93131,18.26201 l -3.59908,0 q -0.46655,-9.73085 -6.86491,-15.59602 -6.33172,-5.93182 -16.39582,-5.93182 -12.06358,0 -18.928497,8.73111 -6.798264,8.66445 -6.798264,24.12717 l 0,2.33273 q 0,15.12947 6.864914,23.79393 6.931567,8.5978 18.995147,8.5978 z"
         style="font-style:normal;font-variant:normal;font-weight:200;font-stretch:normal;font-size:136.49847412px;font-family:Roboto;-inkscape-font-specification:'Roboto Ultra-Light'"
         id="path3344" />
      <path
         d="m 155.49528,266.42971 q 0,-10.3307 3.93233,-18.5286 3.99898,-8.26456 11.19714,-12.86338 7.26481,-4.59883 16.39581,-4.59883 9.06435,0 16.26251,4.46553 7.19817,4.46552 11.19715,12.66343 4.06562,8.19791 4.13227,18.46195 l 0,3.19918 q 0,10.39735 -3.93233,18.59526 -3.93232,8.1979 -11.19714,12.79673 -7.19816,4.59882 -16.32916,4.59882 -9.131,0 -16.39581,-4.53217 -7.19816,-4.53218 -11.19714,-12.66344 -3.99898,-8.1979 -4.06563,-18.3953 l 0,-3.19918 z m 3.59908,2.79928 q 0,8.99771 3.53243,16.52912 3.59908,7.46476 9.9308,11.66368 6.39836,4.19893 14.59627,4.19893 12.33019,0 20.06154,-9.2643 7.79801,-9.2643 7.79801,-23.86057 l 0,-2.06614 q 0,-8.8644 -3.59908,-16.39581 -3.59908,-7.53141 -9.99745,-11.73034 -6.33171,-4.26558 -14.39632,-4.26558 -12.33018,0 -20.12819,9.3976 -7.79801,9.3976 -7.79801,23.66063 l 0,2.13278 z"
         style="font-style:normal;font-variant:normal;font-weight:200;font-stretch:normal;font-size:136.49847412px;font-family:Roboto;-inkscape-font-specification:'Roboto Ultra-Light'"
         id="path3346" />
      <path
         d="m 241.60662,303.88681 0,-68.44919 -12.53013,0 0,-3.66573 12.53013,0 0,-10.53064 q 0.0667,-9.99745 4.99873,-15.52937 4.99872,-5.59857 13.86312,-5.59857 4.93208,0 8.53116,1.13305 l -0.5332,3.46578 q -3.46578,-0.99975 -7.93131,-0.99975 -7.13151,0 -11.26379,4.66548 -4.06563,4.59882 -4.06563,13.12998 l 0,10.26404 19.0618,0 0,3.66573 -19.0618,0 0,68.44919 -3.59908,0 z"
         style="font-style:normal;font-variant:normal;font-weight:200;font-stretch:normal;font-size:136.49847412px;font-family:Roboto;-inkscape-font-specification:'Roboto Ultra-Light'"
         id="path3348" />
      <path
         d="m 284.52899,303.88681 0,-68.44919 -12.53014,0 0,-3.66573 12.53014,0 0,-10.53064 q 0.0666,-9.99745 4.99872,-15.52937 4.99872,-5.59857 13.86313,-5.59857 4.93207,0 8.53115,1.13305 l -0.5332,3.46578 q -3.46578,-0.99975 -7.93131,-0.99975 -7.13151,0 -11.26379,4.66548 -4.06562,4.59882 -4.06562,13.12998 l 0,10.26404 19.0618,0 0,3.66573 -19.0618,0 0,68.44919 -3.59908,0 z"
         style="font-style:normal;font-variant:normal;font-weight:200;font-stretch:normal;font-size:136.49847412px;font-family:Roboto;-inkscape-font-specification:'Roboto Ultra-Light'"
         id="path3350" />
      <path
         d="m 346.31321,305.2198 q -8.7311,0 -16.06256,-4.66547 -7.26481,-4.73213 -11.39709,-12.93003 -4.13228,-8.19791 -4.13228,-18.19536 l 0,-2.99923 q 0,-9.99745 3.99898,-18.32865 3.99898,-8.33121 10.99719,-12.99668 6.99821,-4.66548 15.26277,-4.66548 12.06358,0 19.72829,8.59781 7.66471,8.5978 7.66471,22.59423 l 0,3.79902 -54.05286,0 0,3.93233 q 0,8.79776 3.66573,16.32917 3.73238,7.46476 10.1974,11.73033 6.53166,4.26558 14.12972,4.26558 7.26481,0 12.33019,-2.39939 5.13202,-2.46603 9.06435,-7.53141 l 2.53268,1.79955 q -8.0646,11.66368 -23.92722,11.66368 z m -1.33299,-71.18182 q -10.53065,0 -17.86211,7.86466 -7.33146,7.79801 -8.5978,19.92824 l 50.25383,0 0,-0.86644 q 0,-7.33146 -3.13253,-13.59653 -3.06589,-6.33172 -8.53116,-9.7975 -5.39862,-3.53243 -12.13023,-3.53243 z"
         style="font-style:normal;font-variant:normal;font-weight:200;font-stretch:normal;font-size:136.49847412px;font-family:Roboto;-inkscape-font-specification:'Roboto Ultra-Light'"
         id="path3352" />
      <path
         d="m 415.09565,305.2198 q -8.7311,0 -16.06256,-4.66547 -7.26481,-4.73213 -11.39709,-12.93003 -4.13228,-8.19791 -4.13228,-18.19536 l 0,-2.99923 q 0,-9.99745 3.99898,-18.32865 3.99898,-8.33121 10.99719,-12.99668 6.99821,-4.66548 15.26277,-4.66548 12.06358,0 19.72829,8.59781 7.66471,8.5978 7.66471,22.59423 l 0,3.79902 -54.05286,0 0,3.93233 q 0,8.79776 3.66573,16.32917 3.73238,7.46476 10.1974,11.73033 6.53166,4.26558 14.12972,4.26558 7.26481,0 12.33019,-2.39939 5.13202,-2.46603 9.06435,-7.53141 l 2.53268,1.79955 q -8.0646,11.66368 -23.92722,11.66368 z m -1.33299,-71.18182 q -10.53065,0 -17.86211,7.86466 -7.33146,7.79801 -8.5978,19.92824 l 50.25383,0 0,-0.86644 q 0,-7.33146 -3.13253,-13.59653 -3.06589,-6.33172 -8.53116,-9.7975 -5.39862,-3.53243 -12.13023,-3.53243 z"
         style="font-style:normal;font-variant:normal;font-weight:200;font-stretch:normal;font-size:136.49847412px;font-family:Roboto;-inkscape-font-specification:'Roboto Ultra-Light'"
         id="path3354" />
      <path
         d="m 545.86226,268.49585 q 0,16.86236 -7.26481,26.79316 -7.26481,9.93079 -19.79494,9.93079 -8.13126,0 -14.52963,-3.33248 -6.39836,-3.39913 -10.06409,-9.3976 l 0,11.39709 -3.59908,0 0,-102.37386 3.59908,0 0,43.38892 q 3.79903,-7.13151 9.99744,-10.79724 6.26507,-3.66573 14.46298,-3.66573 12.66343,0 19.92824,9.73085 7.26481,9.6642 7.26481,27.19305 l 0,1.13305 z m -3.73238,-1.39964 q 0,-15.52937 -6.19841,-24.26048 -6.13177,-8.79775 -17.19561,-8.79775 -9.06436,0 -15.39607,4.66548 -6.26507,4.66547 -9.131,13.86312 l 0,33.05823 q 2.86593,7.66471 9.131,11.86363 6.33171,4.13228 15.52937,4.13228 11.13049,0 17.1956,-8.8644 6.06512,-8.8644 6.06512,-25.66011 z"
         style="font-style:normal;font-variant:normal;font-weight:200;font-stretch:normal;font-size:136.49847412px;font-family:Roboto;-inkscape-font-specification:'Roboto Ultra-Light';stroke:#fff6d5"
         id="path3356"
         inkscape:connector-curvature="0" />
      <path
         d="m 569.85611,303.88681 -3.59908,0 0,-72.11492 3.59908,0 0,72.11492 z m -5.46527,-94.6425 q 0,-1.53294 1.0664,-2.59933 1.06639,-1.13305 2.59933,-1.13305 1.53295,0 2.59934,1.13305 1.13304,1.06639 1.13304,2.59933 0,1.53295 -1.13304,2.59934 -1.06639,1.06639 -2.59934,1.06639 -1.53294,0 -2.59933,-1.06639 -1.0664,-1.06639 -1.0664,-2.59934 z"
         style="font-style:normal;font-variant:normal;font-weight:200;font-stretch:normal;font-size:136.49847412px;font-family:Roboto;-inkscape-font-specification:'Roboto Ultra-Light'"
         id="path3358" />
      <path
         d="m 597.24913,248.5676 q 3.53243,-8.39785 10.39734,-13.26327 6.86492,-4.86543 15.19612,-4.86543 11.59704,0 17.19561,6.59832 5.66522,6.53166 5.73187,19.79494 l 0,47.05465 -3.59908,0 0,-47.18795 q -0.0666,-11.59704 -4.73212,-17.12896 -4.66548,-5.59857 -14.79623,-5.59857 -9.33095,0 -16.19586,6.66497 -6.79826,6.59831 -9.19765,17.06231 l 0,46.1882 -3.59908,0 0,-72.11492 3.59908,0 0,16.79571 z"
         style="font-style:normal;font-variant:normal;font-weight:200;font-stretch:normal;font-size:136.49847412px;font-family:Roboto;-inkscape-font-specification:'Roboto Ultra-Light'"
         id="path3360" />
    </g>
  </g>
</svg>
