<?xml version="1.0" encoding="UTF-8" standalone="no"?>
<!-- Created with Inkscape (http://www.inkscape.org/) -->

<svg
   xmlns:dc="http://purl.org/dc/elements/1.1/"
   xmlns:cc="http://creativecommons.org/ns#"
   xmlns:rdf="http://www.w3.org/1999/02/22-rdf-syntax-ns#"
   xmlns:svg="http://www.w3.org/2000/svg"
   xmlns="http://www.w3.org/2000/svg"
   xmlns:sodipodi="http://sodipodi.sourceforge.net/DTD/sodipodi-0.dtd"
   xmlns:inkscape="http://www.inkscape.org/namespaces/inkscape"
   width="500"
   height="100"
   viewBox="0 0 500.00003 99.999999"
   id="svg2"
   version="1.1"
   inkscape:version="0.91 r13725"
   sodipodi:docname="coffee-bin-text.svg"
   inkscape:export-filename="/home/andre/Development/raspberry-coffee/assets/logo/coffe-bin-text-bold-white.png"
   inkscape:export-xdpi="90"
   inkscape:export-ydpi="90">
  <defs
     id="defs4" />
  <sodipodi:namedview
     id="base"
     pagecolor="#ffffff"
     bordercolor="#666666"
     borderopacity="1.0"
     inkscape:pageopacity="0.0"
     inkscape:pageshadow="2"
     inkscape:zoom="1.0773435"
     inkscape:cx="199.73636"
     inkscape:cy="91.061978"
     inkscape:document-units="px"
     inkscape:current-layer="layer1"
     showgrid="false"
     inkscape:window-width="1920"
     inkscape:window-height="1016"
     inkscape:window-x="0"
     inkscape:window-y="27"
     inkscape:window-maximized="1"
     fit-margin-top="0"
     fit-margin-left="0"
     fit-margin-right="0"
     fit-margin-bottom="0"
     units="px"
     inkscape:showpageshadow="false"
     showborder="true" />
  <metadata
     id="metadata7">
    <rdf:RDF>
      <cc:Work
         rdf:about="">
        <dc:format>image/svg+xml</dc:format>
        <dc:type
           rdf:resource="http://purl.org/dc/dcmitype/StillImage" />
        <dc:title></dc:title>
      </cc:Work>
    </rdf:RDF>
  </metadata>
  <g
     inkscape:label="Layer 1"
     inkscape:groupmode="layer"
     id="layer1"
     transform="translate(-88.059655,-193.26008)">
    <g
       style="font-style:normal;font-variant:normal;font-weight:300;font-stretch:normal;font-size:118.69482422px;line-height:125%;font-family:Roboto;-inkscape-font-specification:'Roboto Light';letter-spacing:0px;word-spacing:0px;fill:#ffffff;fill-opacity:1;stroke:none;stroke-width:1px;stroke-linecap:butt;stroke-linejoin:miter;stroke-opacity:1"
       id="text3529"
       transform="matrix(0.97968848,0,0,0.97968848,6.8665042,4.940981)">
      <path
         d="m 114.63752,283.10515 q 7.24456,0 12.1129,-4.05695 4.9263,-4.11491 5.332,-10.60604 l 6.66499,0 q -0.28978,5.73769 -3.5933,10.49012 -3.30352,4.69448 -8.80938,7.36047 -5.44791,2.666 -11.70721,2.666 -12.34472,0 -19.589278,-8.57755 -7.186601,-8.57756 -7.186601,-23.06667 l 0,-2.08644 q 0,-9.27303 3.245562,-16.40167 3.245562,-7.12865 9.273037,-11.01173 6.08542,-3.88308 14.19933,-3.88308 10.31625,0 16.98124,6.14338 6.72295,6.14338 7.1866,16.16985 l -6.66499,0 q -0.46365,-7.36047 -5.332,-11.88107 -4.81038,-4.52061 -12.17085,-4.52061 -9.38895,0 -14.605029,6.78091 -5.158125,6.78091 -5.158125,19.00972 l 0,2.02847 q 0,11.99699 5.158125,18.71994 5.216079,6.72295 14.662979,6.72295 z"
         id="path3534"
         inkscape:connector-curvature="0"
         style="fill:#ffffff" />
      <path
         d="m 148.83183,255.51787 q 0,-9.0412 3.47739,-16.28576 3.53535,-7.24456 9.91056,-11.24355 6.43316,-4.05695 14.54707,-4.05695 12.51859,0 20.28476,8.80938 7.76616,8.75142 7.76616,23.24054 l 0,1.44891 q 0,9.09916 -3.53534,16.40168 -3.47739,7.24455 -9.8526,11.18559 -6.37521,3.94104 -14.54707,3.94104 -12.46064,0 -20.28476,-8.75142 -7.76617,-8.80939 -7.76617,-23.2985 l 0,-1.39096 z m 6.95478,1.91257 q 0,11.24355 5.79564,18.48811 5.85361,7.1866 15.30051,7.1866 9.38895,0 15.18459,-7.1866 5.8536,-7.24456 5.8536,-19.06768 l 0,-1.333 q 0,-7.1866 -2.66599,-13.15611 -2.666,-5.96952 -7.47639,-9.21508 -4.81038,-3.30352 -11.01172,-3.30352 -9.27304,0 -15.12664,7.30252 -5.8536,7.24456 -5.8536,19.00972 l 0,1.27504 z"
         id="path3536"
         inkscape:connector-curvature="0"
         style="fill:#ffffff" />
      <path
         d="m 224.17523,287.79962 0,-57.02915 -10.37421,0 0,-5.67974 10.37421,0 0,-7.59229 q 0,-9.62077 4.86834,-14.7789 4.9263,-5.15812 13.67772,-5.15812 3.94104,0 7.36047,0.98526 l -0.5216,5.79564 q -2.89783,-0.69547 -6.31726,-0.69547 -5.73769,0 -8.92529,3.5933 -3.18761,3.53534 -3.18761,10.08442 l 0,7.76616 14.95277,0 0,5.67974 -14.95277,0 0,57.02915 -6.95477,0 z"
         id="path3538"
         inkscape:connector-curvature="0"
         style="fill:#ffffff" />
      <path
         d="m 263.58562,287.79962 0,-57.02915 -10.37421,0 0,-5.67974 10.37421,0 0,-7.59229 q 0,-9.62077 4.86834,-14.7789 4.9263,-5.15812 13.67773,-5.15812 3.94104,0 7.36047,0.98526 l -0.52161,5.79564 q -2.89782,-0.69547 -6.31726,-0.69547 -5.73768,0 -8.92529,3.5933 -3.1876,3.53534 -3.1876,10.08442 l 0,7.76616 14.95276,0 0,5.67974 -14.95276,0 0,57.02915 -6.95478,0 z"
         id="path3540"
         inkscape:connector-curvature="0"
         style="fill:#ffffff" />
      <path
         d="m 320.90456,288.95875 q -7.99799,0 -14.48911,-3.94104 -6.43317,-3.94104 -10.02647,-10.95377 -3.5933,-7.07069 -3.5933,-15.82211 l 0,-2.49213 q 0,-9.04121 3.47739,-16.28576 3.53534,-7.24456 9.79464,-11.35947 6.25929,-4.17286 13.56181,-4.17286 11.41742,0 18.08241,7.82412 6.72295,7.76616 6.72295,21.27002 l 0,3.88308 -44.74238,0 0,1.333 q 0,10.66399 6.08543,17.79263 6.14338,7.07069 15.41641,7.07069 5.56382,0 9.79464,-2.02848 4.28878,-2.02847 7.76617,-6.49112 l 4.34673,3.30352 q -7.65025,11.06968 -22.19732,11.06968 z m -1.27504,-59.11559 q -7.82412,0 -13.21407,5.73769 -5.332,5.73769 -6.49113,15.41642 l 37.61374,0 0,-0.75343 q -0.28978,-9.04121 -5.15812,-14.72094 -4.86834,-5.67974 -12.75042,-5.67974 z"
         id="path3542"
         inkscape:connector-curvature="0"
         style="fill:#ffffff" />
      <path
         d="m 382.3384,288.95875 q -7.99799,0 -14.48912,-3.94104 -6.43316,-3.94104 -10.02646,-10.95377 -3.5933,-7.07069 -3.5933,-15.82211 l 0,-2.49213 q 0,-9.04121 3.47738,-16.28576 3.53535,-7.24456 9.79465,-11.35947 6.25929,-4.17286 13.56181,-4.17286 11.41742,0 18.08241,7.82412 6.72295,7.76616 6.72295,21.27002 l 0,3.88308 -44.74239,0 0,1.333 q 0,10.66399 6.08543,17.79263 6.14339,7.07069 15.41642,7.07069 5.56382,0 9.79464,-2.02848 4.28878,-2.02847 7.76617,-6.49112 l 4.34673,3.30352 q -7.65025,11.06968 -22.19732,11.06968 z m -1.27504,-59.11559 q -7.82413,0 -13.21408,5.73769 -5.33199,5.73769 -6.49112,15.41642 l 37.61374,0 0,-0.75343 q -0.28978,-9.04121 -5.15812,-14.72094 -4.86835,-5.67974 -12.75042,-5.67974 z"
         id="path3544"
         inkscape:connector-curvature="0"
         style="fill:#ffffff" />
      <path
         d="m 498.9468,257.0827 q 0,14.66298 -6.49113,23.2985 -6.49112,8.57755 -17.44489,8.57755 -13.09816,0 -19.82111,-9.73668 l -0.28978,8.57755 -6.49112,0 0,-89.02112 6.89681,0 0,35.4114 q 6.60704,-10.25829 19.58929,-10.25829 11.12764,0 17.5608,8.5196 6.49113,8.46164 6.49113,23.58827 l 0,1.04322 z m -6.95478,-1.21709 q 0,-12.40268 -4.81039,-19.12563 -4.81038,-6.7809 -13.56181,-6.7809 -6.66499,0 -11.30151,3.30352 -4.63651,3.24556 -7.01273,9.56281 l 0,28.28275 q 5.21608,11.82312 18.43016,11.82312 8.57755,0 13.38794,-6.78091 4.86834,-6.7809 4.86834,-20.28476 z"
         id="path3546"
         inkscape:connector-curvature="0"
         style="fill:#ffffff" />
      <path
         d="m 522.07142,287.79962 -6.95478,0 0,-62.70889 6.95478,0 0,62.70889 z m -8.17186,-80.84926 q 0,-1.97052 1.27504,-3.30351 1.27504,-1.39096 3.47739,-1.39096 2.20234,0 3.47738,1.39096 1.333,1.33299 1.333,3.30351 0,1.97052 -1.333,3.30352 -1.27504,1.333 -3.47738,1.333 -2.20235,0 -3.47739,-1.333 -1.27504,-1.333 -1.27504,-3.30352 z"
         id="path3548"
         inkscape:connector-curvature="0"
         style="fill:#ffffff" />
      <path
         d="m 547.57226,225.09073 0.23183,10.72195 q 3.53534,-5.79565 8.80938,-8.80938 5.27404,-3.07169 11.64925,-3.07169 10.08442,0 15.01072,5.67973 4.9263,5.67973 4.98426,17.0392 l 0,41.14908 -6.89682,0 0,-41.20704 q -0.058,-8.40369 -3.5933,-12.51859 -3.47739,-4.11491 -11.1856,-4.11491 -6.43317,0 -11.41742,4.05695 -4.9263,3.99899 -7.30252,10.83786 l 0,42.94573 -6.89681,0 0,-62.70889 6.60703,0 z"
         id="path3550"
         inkscape:connector-curvature="0"
         style="fill:#ffffff" />
    </g>
  </g>
</svg>
